<svg xmlns="http://www.w3.org/2000/svg" viewBox="0 0 64 64"><path fill="#f21e33" d="M35.12,35.513H28.344V30.849a3.016,3.016,0,0,1,.07-.618c.012-.061.03-.119.046-.179a3.088,3.088,0,0,1,.148-.421c.025-.057.049-.115.077-.171a3.049,3.049,0,0,1,.309-.489c.007-.008.011-.019.019-.027l0-.006.065.036a4.154,4.154,0,0,0,.445.2l.359.134a5.789,5.789,0,0,0,1.011.234c.112.018.217.033.352.043a6.134,6.134,0,0,0,3.18-.642c.037.045.077.089.111.137s.088.122.127.186a2.83,2.83,0,0,1,.158.3c.03.065.063.128.088.194a3.145,3.145,0,0,1,.106.355c.015.059.035.116.046.176a3.143,3.143,0,0,1,.054.559v4.664Z"/><path fill="#4fd3da" d="M45.513 31.144H37.12v-.295a5.1 5.1 0 0 0-.089-.919c-.019-.1-.053-.2-.078-.306a5.183 5.183 0 0 0-.167-.562c-.046-.121-.1-.235-.157-.351a4.867 4.867 0 0 0-.238-.452c-.07-.117-.146-.228-.225-.338-.047-.065-.082-.135-.132-.2a5.851 5.851 0 0 0 1.346-5.619c-.045-.157-.1-.312-.153-.462.009-.01.017-.021.027-.031a4.405 4.405 0 0 1 .591-.49c.051-.035.107-.062.159-.095a4.322 4.322 0 0 1 .518-.281c.04-.018.08-.032.121-.049a.318.318 0 0 0 .033.01 5.2 5.2 0 0 0 .941.3l.1.02a4.785 4.785 0 0 0 2.031 0L41.866 21a5.3 5.3 0 0 0 .926-.293c.012-.005.026-.007.039-.012.058.024.118.045.175.071.089.042.177.087.263.134.11.061.217.127.32.2.079.053.157.107.232.165.1.079.2.163.294.251.064.059.128.118.188.181a4.194 4.194 0 0 1 .275.321c.045.058.093.114.135.174a4.248 4.248 0 0 1 .256.418c.025.045.054.089.077.135a4.472 4.472 0 0 1 .23.553c.006.018.015.036.021.054a4.47 4.47 0 0 1 .216 1.374zM17.407 31.8V24.327a5.09 5.09 0 0 1 2.336-4.268c.047.032.1.054.147.084.114.074.232.138.351.2.141.077.283.15.431.214a5.576 5.576 0 0 0 .556.212c.051.016.1.029.152.043a5.194 5.194 0 0 0 3.215-.006l.138-.039a5.444 5.444 0 0 0 .565-.218c.141-.061.278-.131.414-.2s.246-.135.364-.212c.046-.03.1-.051.142-.083a5.031 5.031 0 0 1 .6.45c-.025.039-.043.081-.067.12-.095.151-.181.306-.261.466-.036.07-.074.139-.106.211a5.77 5.77 0 0 0-.274.713 5.91 5.91 0 0 0 1.317 5.709c-.008.01-.013.021-.021.031a5.056 5.056 0 0 0-.389.587c-.031.054-.061.107-.09.162a5.073 5.073 0 0 0-.3.678l-.007.025a4.886 4.886 0 0 0-.179.7c-.012.062-.023.125-.032.188a5.01 5.01 0 0 0-.064.757V31.8z"/><path fill="#142238" d="M46.513,33.144a1,1,0,0,0,1-1V25.725h.08a1,1,0,0,0,1-1V12.063a7.86,7.86,0,0,0-15.719,0v5.909a4.806,4.806,0,0,0-.677-.09,2.979,2.979,0,0,0-.469-.028,1.944,1.944,0,0,0-.247.009,5.794,5.794,0,0,0-3.3,1.188,7,7,0,0,0-.545-.441,5.58,5.58,0,0,0,.376-.644A8.021,8.021,0,0,0,27.2,5.587a7.36,7.36,0,0,0-4.221-1.332,7.723,7.723,0,0,0-7.569,7.852,7.97,7.97,0,0,0,2.527,5.846,5.718,5.718,0,0,0,.393.669,7.1,7.1,0,0,0-2.92,5.705V32.8a1,1,0,0,0,1,1h9.937v2.71a1,1,0,0,0,1,1H36.12a1,1,0,0,0,1-1V33.144Zm-1-2H37.12v-.295a5.1,5.1,0,0,0-.089-.919c-.019-.1-.053-.2-.078-.306a5.183,5.183,0,0,0-.167-.562c-.046-.121-.1-.235-.157-.351a4.867,4.867,0,0,0-.238-.452c-.07-.117-.146-.228-.225-.338-.047-.065-.082-.135-.132-.2a5.851,5.851,0,0,0,1.346-5.619c-.045-.157-.1-.312-.153-.462.009-.01.017-.021.027-.031a4.405,4.405,0,0,1,.591-.49c.051-.035.107-.062.159-.095a4.322,4.322,0,0,1,.518-.281c.04-.018.08-.032.121-.049a.318.318,0,0,0,.033.01,5.2,5.2,0,0,0,.941.3l.1.02a4.785,4.785,0,0,0,2.031,0L41.866,21a5.3,5.3,0,0,0,.926-.293c.012-.005.026-.007.039-.012.058.024.118.045.175.071.089.042.177.087.263.134.11.061.217.127.32.2.079.053.157.107.232.165.1.079.2.163.294.251.064.059.128.118.188.181a4.194,4.194,0,0,1,.275.321c.045.058.093.114.135.174a4.248,4.248,0,0,1,.256.418c.025.045.054.089.077.135a4.472,4.472,0,0,1,.23.553c.006.018.015.036.021.054a4.47,4.47,0,0,1,.216,1.374ZM41.17,12.3c.079-.058.171-.1.245-.166a5.48,5.48,0,0,0,2.655,1.584V15.8a3.321,3.321,0,0,1-1.758,2.933c-.068.038-.144.053-.215.085a3.687,3.687,0,0,1-2.943-.089h0A3.32,3.32,0,0,1,37.4,15.8V13.477h.012A6.049,6.049,0,0,0,41.17,12.3Zm-6.3-.237a5.86,5.86,0,1,1,11.719,0V21.4c-.068-.112-.148-.217-.223-.325-.039-.056-.075-.113-.115-.168a6.327,6.327,0,0,0-.566-.659c-.043-.044-.09-.083-.135-.126a6.417,6.417,0,0,0-.546-.466c-.064-.048-.127-.1-.193-.143-.05-.035-.1-.075-.147-.109.033-.035.056-.078.087-.114a5.085,5.085,0,0,0,.415-.545c.038-.056.08-.108.115-.166a5.277,5.277,0,0,0,.384-.762c.031-.076.054-.155.082-.232a5.1,5.1,0,0,0,.18-.626c.021-.092.042-.183.058-.276a5.426,5.426,0,0,0,.078-.829c0-.019.005-.036.005-.055V12.9a1,1,0,0,0-.873-.992,3.309,3.309,0,0,1-2.724-1.793,1,1,0,0,0-.841-.625h0a1,1,0,0,0-.938.469,3.761,3.761,0,0,1-3.2,1.519,3.989,3.989,0,0,1-.87-.091,1,1,0,0,0-.845.2,1,1,0,0,0-.374.78V15.8a5.409,5.409,0,0,0,.087.912c.013.071.029.141.044.212a5.455,5.455,0,0,0,.207.717c.019.052.034.105.055.156a5.324,5.324,0,0,0,.406.8c.02.032.043.06.063.091a5.262,5.262,0,0,0,.482.631c.023.027.04.058.064.084-.032.022-.061.048-.093.07-.081.056-.156.118-.235.178-.1.077-.209.148-.306.231-.06-.069-.131-.127-.193-.193-.094-.1-.188-.2-.287-.286-.119-.109-.245-.21-.373-.308-.108-.084-.216-.168-.33-.244-.041-.027-.077-.061-.119-.087Zm-1.436,8.19a3.781,3.781,0,0,1,.527.308,3.857,3.857,0,0,1,1.2,1.375c-.052.016-.106.03-.161.042a1.782,1.782,0,0,1-.664.039,1.465,1.465,0,0,1-.219-.046,1.866,1.866,0,0,1-1.36-1.445.994.994,0,0,0-.389-.615A3.727,3.727,0,0,1,33.438,20.253Zm-1.659,2.562A3.8,3.8,0,0,0,33.6,23.9a3.344,3.344,0,0,0,.486.1,3.743,3.743,0,0,0,1.378-.075c.045-.01.086-.034.131-.046a3.808,3.808,0,0,1-1.288,2.736.942.942,0,0,0-.117.157.951.951,0,0,0-.189.094,3.847,3.847,0,0,1-2.272.738c-.119,0-.246-.008-.343-.013-.063-.005-.122-.015-.235-.032a3.848,3.848,0,0,1-.6-.135l-.286-.108a2.2,2.2,0,0,1-.258-.116c-.082-.044-.164-.086-.33-.192a2.065,2.065,0,0,1-.216-.143,3.872,3.872,0,0,1-1.583-2.99,3.811,3.811,0,0,0,1.078.158,3.438,3.438,0,0,0,.6-.051A3.849,3.849,0,0,0,31.779,22.815ZM30.8,20.523a1.874,1.874,0,0,1-1.569,1.485,1.674,1.674,0,0,1-.51.009,1.778,1.778,0,0,1-.4-.1c.008-.015.013-.033.021-.048A3.845,3.845,0,0,1,31.22,19.89.994.994,0,0,0,30.8,20.523Zm-5.359-2.406a3.794,3.794,0,0,1-4.239.474,3.373,3.373,0,0,1-.433-.281,2.978,2.978,0,0,1-.257-.189h0a3.753,3.753,0,0,1-.88-1.207,3.652,3.652,0,0,1-.331-1.523V12.8a6.568,6.568,0,0,0,4.422-1.483,5.856,5.856,0,0,0,2.934,1.761v2.309a3.7,3.7,0,0,1-1.206,2.723ZM22.976,6.255a5.363,5.363,0,0,1,3.078.974,5.912,5.912,0,0,1,2.49,4.575.987.987,0,0,0-.136-.2l-.014-.012a.964.964,0,0,0-.231-.185c-.023-.014-.046-.026-.07-.038a1,1,0,0,0-.308-.1,3.677,3.677,0,0,1-3-1.984,1,1,0,0,0-.839-.623c-.03,0-.06,0-.089,0a1.016,1.016,0,0,0-.122.015.885.885,0,0,0-.09.012,1,1,0,0,0-.17.057c-.026.011-.053.018-.078.031a.917.917,0,0,0-.153.1c-.02.016-.043.028-.063.046a.985.985,0,0,0-.171.2,4.164,4.164,0,0,1-3.528,1.68,4.336,4.336,0,0,1-.956-.1,1,1,0,0,0-.846.192.978.978,0,0,0-.184.191A5.665,5.665,0,0,1,22.976,6.255ZM17.407,31.8V24.327a5.09,5.09,0,0,1,2.336-4.268c.047.032.1.054.147.084.114.074.232.138.351.2.141.077.283.15.431.214a5.576,5.576,0,0,0,.556.212c.051.016.1.029.152.043a5.194,5.194,0,0,0,3.215-.006l.138-.039a5.444,5.444,0,0,0,.565-.218c.141-.061.278-.131.414-.2s.246-.135.364-.212c.046-.03.1-.051.142-.083a5.031,5.031,0,0,1,.6.45c-.025.039-.043.081-.067.12-.095.151-.181.306-.261.466-.036.07-.074.139-.106.211a5.77,5.77,0,0,0-.274.713,5.91,5.91,0,0,0,1.317,5.709c-.008.01-.013.021-.021.031a5.056,5.056,0,0,0-.389.587c-.031.054-.061.107-.09.162a5.073,5.073,0,0,0-.3.678l-.007.025a4.886,4.886,0,0,0-.179.7c-.012.062-.023.125-.032.188a5.01,5.01,0,0,0-.064.757V31.8Zm17.713,3.71H28.344V30.849a3.016,3.016,0,0,1,.07-.618c.012-.061.03-.119.046-.179a3.088,3.088,0,0,1,.148-.421c.025-.057.049-.115.077-.171a3.049,3.049,0,0,1,.309-.489c.007-.008.011-.019.019-.027l0-.006.065.036a4.154,4.154,0,0,0,.445.2l.359.134a5.789,5.789,0,0,0,1.011.234c.112.018.217.033.352.043a6.134,6.134,0,0,0,3.18-.642c.037.045.077.089.111.137s.088.122.127.186a2.83,2.83,0,0,1,.158.3c.03.065.063.128.088.194a3.145,3.145,0,0,1,.106.355c.015.059.035.116.046.176a3.143,3.143,0,0,1,.054.559v4.664Z"/><circle cx="39.268" cy="14.911" r=".397" fill="#142238"/><circle cx="42.201" cy="14.911" r=".397" fill="#142238"/><path fill="#142238" d="M21.393 14a.429.429 0 1 0 .43.429A.429.429 0 0 0 21.393 14zM24.561 14a.429.429 0 1 0 .429.429A.429.429 0 0 0 24.561 14z"/><circle cx="30.275" cy="25.355" r=".397" fill="#142238"/><circle cx="33.208" cy="25.355" r=".397" fill="#142238"/><path fill="#142238" d="M21.787 44.208c-.753-.894-1.5-1.782-2.235-2.695l-4.281-5.335a4.1 4.1 0 0 0-2.9-1.512V23.944A4.092 4.092 0 0 0 6.887 20.1 4.2 4.2 0 0 0 4.2 24.078l-.055 7.709c-.025 3.625-.061 7.48-.179 11.26a6.055 6.055 0 0 0 1.206 4.141L10.214 52.7 10.03 60.64a1 1 0 0 0 1 1.023H22.553a1 1 0 0 0 1-1v-12.6a5.273 5.273 0 0 0-1.415-3.441zm-.234 15.455h-9.5l.169-7.324a1 1 0 0 0-.262-.7l-5.306-5.8a4.069 4.069 0 0 1-.688-2.731c.119-3.8.155-7.674.18-11.311L6.2 24.078a2.22 2.22 0 0 1 1.36-2.094 2.1 2.1 0 0 1 2.2.485 2.074 2.074 0 0 1 .613 1.475V35.021a3.982 3.982 0 0 0-.852.525l-.041.033a4.1 4.1 0 0 0-.614 5.69l.014.018 5.145 6.58A1 1 0 0 0 15.6 46.636L10.462 40.06l-.013-.017a2.08 2.08 0 0 1-.453-1.3 2.1 2.1 0 0 1 .782-1.64 2 2 0 0 1 .778-.381l.029-.006.059-.015a1.673 1.673 0 0 1 .432-.046 2.1 2.1 0 0 1 1.639.779l4.278 5.331c.742.925 1.5 1.826 2.264 2.732l.351.415a3.384 3.384 0 0 1 .945 2.154zM60.033 43.05c-.118-3.783-.154-7.638-.179-11.263L59.8 24.078A4.2 4.2 0 0 0 57.1 20.1a4.092 4.092 0 0 0-5.48 3.845V34.666a4.1 4.1 0 0 0-2.9 1.516l-4.278 5.331c-.733.913-1.482 1.8-2.235 2.7l-.351.417a5.273 5.273 0 0 0-1.415 3.441v12.6a1 1 0 0 0 1 1H52.97a1 1 0 0 0 1-1.023L53.786 52.7l5.046-5.513A6.048 6.048 0 0 0 60.033 43.05zm-2.682 2.787l-5.311 5.8a1 1 0 0 0-.262.7l.169 7.324h-9.5v-11.6a3.38 3.38 0 0 1 .945-2.153l.351-.416c.763-.906 1.522-1.807 2.264-2.732l4.275-5.327a2.115 2.115 0 0 1 2.071-.738l.062.016a1.934 1.934 0 0 1 .806.387 2.1 2.1 0 0 1 .333 2.936l0 0-.007.008h0L48.4 46.636a1 1 0 1 0 1.575 1.231l5.141-6.576a4.1 4.1 0 0 0-.637-5.746l0 0-.008-.006h0a4.079 4.079 0 0 0-.84-.517V23.944a2.092 2.092 0 0 1 2.806-1.963 2.222 2.222 0 0 1 1.369 2.1l.055 7.723c.025 3.637.061 7.506.18 11.314A4.066 4.066 0 0 1 57.351 45.837z"/></svg>